<?xml version="1.0" encoding="UTF-8"?>
<svg width="220px" height="61px" viewBox="0 0 220 61" version="1.1" xmlns="http://www.w3.org/2000/svg" xmlns:xlink="http://www.w3.org/1999/xlink">
    <!-- Generator: Sketch 48.2 (47327) - http://www.bohemiancoding.com/sketch -->
    <title>Page 1</title>
    <desc>Created with Sketch.</desc>
    <defs>
        <polygon id="path-1" points="0.468543103 0.758276923 45.53725 0.758276923 45.53725 40.6305046 0.468543103 40.6305046"></polygon>
        <polygon id="path-3" points="0.666448276 0.758276923 47.5567931 0.758276923 47.5567931 40.1809815 0.666448276 40.1809815"></polygon>
        <polygon id="path-5" points="0.415344828 0.758276923 15.114569 0.758276923 15.114569 8.82707538 0.415344828 8.82707538"></polygon>
        <polygon id="path-7" points="0.839508621 0.758276923 49.5932155 0.758276923 49.5932155 40.1716908 0.839508621 40.1716908"></polygon>
        <polygon id="path-9" points="0 0.673346154 219.165233 0.673346154 219.165233 13.1384615 0 13.1384615"></polygon>
    </defs>
    <g id="Symbols" stroke="none" stroke-width="1" fill="none" fill-rule="evenodd">
        <g id="Page-1">
            <g id="Group-3" transform="translate(6.637931, 0.180091)">
                <mask id="mask-2" fill="white">
                    <use xlink:href="#path-1"></use>
                </mask>
                <g id="Clip-2"></g>
                <path d="M19.4179397,30.3815662 C21.6938017,30.3815662 23.5239741,29.8560277 24.9094052,28.8049508 C26.2929397,27.7538738 27.2506983,25.9510892 27.7836293,23.3975354 L32.6767328,0.758089231 L45.53725,0.758089231 L40.4165603,24.4110738 C39.6949224,27.7904738 38.727681,30.5411046 37.5138879,32.6620277 C36.3000948,34.7838892 34.7913879,36.4355815 32.9906121,37.6180431 C31.1888879,38.8005046 29.0732845,39.5991354 26.64475,40.01112 C24.2162155,40.4240431 21.44725,40.6305046 18.3359569,40.6305046 C15.6049224,40.6305046 13.1384569,40.3865046 10.9394052,39.8994431 C8.7384569,39.4114431 6.85992241,38.6700585 5.30475,37.6743508 C3.74957759,36.6795815 2.55475,35.4220431 1.72026724,33.9007969 C0.885784483,32.3804892 0.468543103,30.5692585 0.468543103,28.4661662 C0.468543103,27.8280123 0.515956897,27.1147815 0.609836207,26.3255354 C0.705612069,25.5381662 0.808974138,24.9000123 0.923715517,24.4110738 L6.04440517,0.758089231 L18.9058707,0.758089231 L14.0127672,23.3975354 C13.9350086,23.8479969 13.8686293,24.2806277 13.8117328,24.6935508 C13.7548362,25.1064738 13.7273362,25.5006277 13.7273362,25.8750738 C13.7273362,27.5277046 14.2119052,28.6913969 15.17725,29.3670892 C16.1454397,30.0427815 17.559319,30.3815662 19.4179397,30.3815662" id="Fill-1" fill="#222C77" mask="url(#mask-2)"></path>
            </g>
            <g id="Group-6" transform="translate(45.517241, 0.180091)">
                <mask id="mask-4" fill="white">
                    <use xlink:href="#path-3"></use>
                </mask>
                <g id="Clip-5"></g>
                <path d="M5.95782759,30.3815662 L28.0374828,30.3815662 C28.5305862,30.3815662 29.0805862,30.2867815 29.6865345,30.1000277 C30.293431,29.9123354 30.5978276,29.4994123 30.5978276,28.86032 C30.5978276,28.3732585 30.3787759,28.0157046 29.9435172,27.7904738 C29.5063621,27.5652431 28.9848103,27.35972 28.3788621,27.1710892 L15.0631724,22.8907662 C13.0139483,22.2150738 11.5441207,21.1546123 10.6517931,19.7093815 C9.76041379,18.2641508 9.31472414,16.48952 9.31472414,14.3873662 C9.31472414,13.7492123 9.3517069,13.0172123 9.42946552,12.1913662 C9.50437931,11.36552 9.61817241,10.63352 9.77084483,9.99442769 C10.1112759,8.45535077 10.5474828,7.10396615 11.0785172,5.93933538 C11.6095517,4.77658154 12.3217069,3.80996615 13.2121379,3.03948923 C14.1035172,2.26995077 15.2044655,1.69748923 16.5140345,1.32116615 C17.8217069,0.94672 19.4072241,0.758089231 21.2658448,0.758089231 L47.5567931,0.758089231 L45.4497241,10.5575046 L25.1917069,10.5575046 C24.9641207,10.5575046 24.6692069,10.5668892 24.3107586,10.5856585 C23.9485172,10.6053662 23.6071379,10.6616738 23.2847241,10.7545815 C22.9642069,10.8493662 22.6882586,10.99952 22.4587759,11.2050431 C22.2330862,11.4115046 22.1183448,11.7033662 22.1183448,12.0778123 C22.1183448,12.4156585 22.2236034,12.6971969 22.4312759,12.9224277 C22.6398966,13.1476585 22.8949828,13.3269046 23.2003276,13.4582892 C23.5028276,13.5896738 24.5848103,13.8834123 25.0788621,14.0335662 C25.5719655,14.18372 36.6307586,17.5405969 36.6307586,17.5405969 C39.1332586,18.2923046 40.9729138,19.3246123 42.1506724,20.6384585 C43.3255862,21.9532431 43.9135172,23.7541508 43.9135172,26.0439969 C43.9135172,26.6455508 43.8670517,27.35972 43.7722241,28.1846277 C43.6755,29.0114123 43.5522241,29.7612431 43.4014483,30.4378738 C43.060069,32.1280431 42.613431,33.5826585 42.0643793,34.80172 C41.5143793,36.0226585 40.7842069,37.0361969 39.8738621,37.8432738 C38.962569,38.6512892 37.8236897,39.24252 36.460069,39.6169662 C35.0936034,39.9932892 33.4236897,40.1809815 31.4512759,40.1809815 L0.666448276,40.1809815 C0.666448276,40.1809815 2.58481034,38.8568123 4.2717931,35.4398738 C5.95782759,32.0238738 5.95782759,30.3815662 5.95782759,30.3815662" id="Fill-4" fill="#222C77" mask="url(#mask-4)"></path>
            </g>
            <path d="M181.768552,19.1850631 C182.602086,19.1850631 183.341741,19.1475246 183.987517,19.0724477 C184.633293,18.9973708 185.190879,18.8284477 185.665966,18.5656785 C186.140103,18.3038477 186.537431,17.9275246 186.860793,17.4395246 C187.183207,16.9515246 187.459155,16.2946015 187.686741,15.4687554 C187.761655,15.1684477 187.828983,14.8118323 187.884931,14.3979708 C187.942776,13.9859862 187.970276,13.6659708 187.970276,13.44074 C187.970276,12.3521246 187.600448,11.6295092 186.860793,11.2728938 C186.121138,10.9162785 185.029672,10.7379708 183.589241,10.7379708 L177.04519,10.7379708 C175.375276,10.7379708 174.371052,11.5638169 174.028724,13.2155092 L172.720103,19.1850631 L181.768552,19.1850631 Z M155.306914,40.3605092 L162.475879,7.13334 C162.894069,5.14380154 163.757,3.61317077 165.066569,2.54332462 C166.376138,1.47347846 168.035621,0.938555385 170.045017,0.938555385 L191.49881,0.938555385 C193.281569,0.938555385 194.79881,1.17410923 196.052431,1.64240154 C197.303207,2.11163231 198.328293,2.77794 199.125793,3.64226308 C199.921397,4.50564769 200.499845,5.53795538 200.86019,6.73918615 C201.220534,7.94041692 201.401655,9.29274 201.401655,10.79334 C201.401655,11.5065708 201.363724,12.3239708 201.286914,13.2436631 C201.210103,14.1633554 201.077345,15.0933708 200.888638,16.0318323 C200.471397,18.28414 199.978293,20.2267554 199.409328,21.8596785 C198.840362,23.49354 198.032431,24.8364785 196.991224,25.8866169 C195.945276,26.9386323 194.591138,27.7166169 192.922172,28.2243246 C191.252259,28.7301554 189.146138,28.9844785 186.606655,28.9844785 L170.614931,28.9844785 L168.166483,40.3605092 L155.306914,40.3605092 Z" id="Fill-7" fill="#222C77"></path>
            <polygon id="Fill-9" fill="#222C77" points="136.861526 40.3609785 149.825405 40.3609785 155.326353 14.7803938 142.363422 14.7803938"></polygon>
            <g id="Group-13" transform="translate(143.189655, 0.180091)">
                <mask id="mask-6" fill="white">
                    <use xlink:href="#path-5"></use>
                </mask>
                <g id="Clip-12"></g>
                <polygon id="Fill-11" fill="#222C77" mask="url(#mask-6)" points="15.114569 0.758183077 2.15068966 0.758183077 0.415344828 8.82707538 13.3792241 8.82707538"></polygon>
            </g>
            <g id="Group-16" transform="translate(90.086207, 0.180091)">
                <mask id="mask-8" fill="white">
                    <use xlink:href="#path-7"></use>
                </mask>
                <g id="Clip-15"></g>
                <polygon id="Fill-14" fill="#222C77" mask="url(#mask-8)" points="36.6359741 0.758183077 32.5839914 19.4373215 19.4228707 14.2053985 22.3350259 0.758183077 9.37778448 0.758183077 0.839508621 40.1716908 13.7976983 40.1716908 16.5533879 27.4508446 32.0880431 21.7224754 28.0976983 40.1716908 41.0568362 40.1716908 49.5932155 0.758183077"></polygon>
            </g>
            <g id="Group-19" transform="translate(0.000000, 47.103168)">
                <mask id="mask-10" fill="white">
                    <use xlink:href="#path-9"></use>
                </mask>
                <g id="Clip-18"></g>
                <polygon id="Fill-17" fill="#C53538" mask="url(#mask-10)" points="219.165233 0.673346154 2.8995431 0.673346154 -0.000284482759 13.1389308 219.165233 13.1389308"></polygon>
            </g>
            <polygon id="Fill-20" fill="#FEFEFE" points="8.29883621 57.3916154 9.40642241 52.2413385 6.93331897 52.2413385 7.29840517 50.5380308 14.4825431 50.5380308 14.1155603 52.2413385 11.6415086 52.2413385 10.5339224 57.3916154"></polygon>
            <path d="M18.528931,53.8664723 C18.4947931,54.0297646 18.4701379,54.1968108 18.4483276,54.3666723 C18.4293621,54.5355954 18.4198793,54.6763646 18.4198793,54.7871031 C18.4198793,55.1333954 18.5270345,55.3830262 18.7413448,55.5359954 C18.9556552,55.6899031 19.2600517,55.7659185 19.656431,55.7659185 C19.9522931,55.7659185 20.2054828,55.7368262 20.4131552,55.6786415 C20.6198793,55.6195185 20.7991034,55.5228569 20.9479828,55.3895954 C21.0949655,55.2553954 21.2153966,55.0808415 21.3083276,54.8649954 C21.4003103,54.6500877 21.4818621,54.3826262 21.5558276,54.0626108 C21.588069,53.9058877 21.6136724,53.7425954 21.6297931,53.5736723 C21.6449655,53.4038108 21.6553966,53.2630415 21.6553966,53.1523031 C21.6553966,52.8060108 21.5501379,52.5545031 21.3386724,52.3987185 C21.1272069,52.2419954 20.8228103,52.1631646 20.4273793,52.1631646 C20.1296207,52.1631646 19.8773793,52.1922569 19.6659138,52.25138 C19.4553966,52.3095646 19.2771207,52.4062262 19.1320345,52.5394877 C18.986,52.6736877 18.865569,52.8482415 18.7697931,53.0640877 C18.6740172,53.2799338 18.5934138,53.5473954 18.528931,53.8664723 M20.636,50.4598569 C21.2153966,50.4598569 21.7151379,50.5049031 22.1333276,50.5968723 C22.5524655,50.6879031 22.8976379,50.8324262 23.1688448,51.0276262 C23.4391034,51.2237646 23.6382414,51.4780877 23.7672069,51.7915338 C23.8952241,52.10498 23.9597069,52.4794262 23.9597069,52.9167492 C23.9597069,53.0218569 23.9578103,53.1194569 23.9549655,53.2104877 C23.9511724,53.3024569 23.946431,53.3953646 23.9397931,53.4901492 C23.9331552,53.5849338 23.9208276,53.6862877 23.9047069,53.7932723 C23.8885862,53.9011954 23.8715172,54.0231954 23.8497069,54.1602108 C23.7653103,54.6566569 23.6628966,55.0827185 23.5443621,55.4383954 C23.4248793,55.7940723 23.2807414,56.09438 23.1091034,56.3393185 C22.9365172,56.5842569 22.736431,56.7794569 22.5041034,56.9267954 C22.2736724,57.0731954 22.0091034,57.1876877 21.7094483,57.2693338 C21.4088448,57.35098 21.0731552,57.4054108 20.6995345,57.4307492 C20.3268621,57.4570262 19.9096207,57.4701646 19.4487586,57.4701646 C18.8674655,57.4701646 18.3686724,57.42418 17.9495345,57.3331492 C17.5294483,57.2421185 17.1842759,57.0975954 16.9111724,56.9014569 C16.6371207,56.7062569 16.4351379,56.4538108 16.3071207,56.14318 C16.1781552,55.8334877 16.1136724,55.45998 16.1136724,55.0217185 C16.1136724,54.8199492 16.1222069,54.6275646 16.1392759,54.4445646 C16.1553966,54.2615646 16.1857414,54.0363338 16.2322069,53.7688723 C16.3118621,53.2733646 16.4133276,52.8473031 16.5347069,52.4916262 C16.6560862,52.1350108 16.8040172,51.8356415 16.9747069,51.5907031 C17.1463448,51.3457646 17.3473793,51.1496262 17.5778103,51.0032262 C17.8082414,50.8558877 18.0747069,50.7413954 18.3753103,50.6597492 C18.6740172,50.5790415 19.0116034,50.5246108 19.3842759,50.4992723 C19.756,50.4729954 20.1732414,50.4598569 20.636,50.4598569" id="Fill-22" fill="#FEFEFE"></path>
            <path d="M29.9146897,55.6879323 C30.3120172,55.6879323 30.6306379,55.5969015 30.8705517,55.4139015 C31.1104655,55.2309015 31.2773621,54.9174554 31.3693448,54.4745015 L32.2208966,50.5376554 L34.4559828,50.5376554 L33.5665,54.6499938 C33.4413276,55.2374708 33.2715862,55.7160862 33.0620172,56.0839631 C32.8515,56.4537169 32.5878793,56.7408862 32.2749483,56.9464092 C31.961069,57.1519323 31.5940862,57.2908246 31.1721034,57.3621477 C30.7501207,57.4334708 30.2683966,57.4700708 29.7278793,57.4700708 C29.2527931,57.4700708 28.8241724,57.42784 28.441069,57.34244 C28.0589138,57.2579785 27.7317586,57.1284708 27.4615,56.9557938 C27.1912414,56.7831169 26.983569,56.5644554 26.8375345,56.2998092 C26.6943448,56.0361015 26.619431,55.7207785 26.619431,55.3557169 C26.619431,55.24404 26.6298621,55.1201631 26.6459828,54.9831477 C26.6611552,54.8461323 26.681069,54.7353938 26.7000345,54.6499938 L27.5904655,50.5376554 L29.8265,50.5376554 L28.9758966,54.4745015 C28.9626207,54.5523938 28.9512414,54.6274708 28.9408103,54.6987938 C28.9303793,54.7710554 28.9256379,54.8395631 28.9256379,54.9052554 C28.9256379,55.1924246 29.0109828,55.3941938 29.1788276,55.5115015 C29.3466724,55.6297477 29.5913276,55.6879323 29.9146897,55.6879323" id="Fill-24" fill="#FEFEFE"></path>
            <polygon id="Fill-26" fill="#FEFEFE" points="38.1380431 57.3916154 39.244681 52.2413385 36.7715776 52.2413385 37.1376121 50.5380308 44.3208017 50.5380308 43.9547672 52.2413385 41.4797672 52.2413385 40.3731293 57.3916154"></polygon>
            <path d="M54.6393707,53.7102185 C54.7835086,53.7102185 54.9134224,53.7036492 55.025319,53.6905108 C55.1372155,53.6773723 55.2339397,53.64828 55.3164397,53.6022954 C55.3998879,53.5572492 55.4691121,53.4915569 55.5250603,53.4070954 C55.5800603,53.3216954 55.6284224,53.2072031 55.6691983,53.0636185 C55.6815259,53.0120031 55.6919569,52.9500646 55.7023879,52.8778031 C55.7118707,52.80648 55.7166121,52.7511108 55.7166121,52.7116954 C55.7166121,52.5221262 55.6521293,52.3973108 55.5250603,52.3344338 C55.3970431,52.2724954 55.2064397,52.2415262 54.9551466,52.2415262 L53.8172155,52.2415262 C53.5279914,52.2415262 53.3535086,52.3851108 53.2937672,52.67228 L53.0652328,53.7102185 L54.6393707,53.7102185 Z M50.0373879,57.3918031 L51.2862672,51.6146338 C51.3583362,51.2683415 51.5081638,51.0027569 51.7348017,50.8169415 C51.9633362,50.6311262 52.2506638,50.5382185 52.6015259,50.5382185 L56.3310948,50.5382185 C56.641181,50.5382185 56.9038534,50.5785723 57.1210086,50.6602185 C57.3391121,50.7418646 57.5183362,50.8572954 57.6567845,51.0083877 C57.7952328,51.1576031 57.8966983,51.3377877 57.9583362,51.5461262 C58.0209224,51.7554031 58.0531638,51.9900185 58.0531638,52.2518492 C58.0531638,52.3757262 58.0465259,52.5174338 58.0323017,52.6769723 C58.0190259,52.8374492 57.9972155,52.9988646 57.9630776,53.1621569 C57.8919569,53.5534954 57.8047155,53.8913415 57.7051466,54.1756954 C57.6065259,54.4591108 57.4671293,54.6927877 57.2850603,54.8757877 C57.1039397,55.0587877 56.8687672,55.1939262 56.5776466,55.2812031 C56.2874741,55.3703569 55.9223879,55.4135262 55.4804914,55.4135262 L52.7001466,55.4135262 L52.275319,57.3918031 L50.0373879,57.3918031 Z" id="Fill-28" fill="#FEFEFE"></path>
            <path d="M62.8497328,53.8664723 C62.8184397,54.0297646 62.7909397,54.1968108 62.7719741,54.3666723 C62.7511121,54.5355954 62.7416293,54.6763646 62.7416293,54.7871031 C62.7416293,55.1333954 62.8487845,55.3830262 63.0630948,55.5359954 C63.2774052,55.6899031 63.58275,55.7659185 63.9772328,55.7659185 C64.2759397,55.7659185 64.5272328,55.7368262 64.7349052,55.6786415 C64.9425776,55.6195185 65.1208534,55.5228569 65.2697328,55.3895954 C65.4186121,55.2553954 65.5380948,55.0808415 65.6310259,54.8649954 C65.7220603,54.6500877 65.8055086,54.3826262 65.8766293,54.0626108 C65.9117155,53.9058877 65.9354224,53.7425954 65.9524914,53.5736723 C65.9686121,53.4038108 65.9771466,53.2630415 65.9771466,53.1523031 C65.9771466,52.8060108 65.8718879,52.5545031 65.6594741,52.3987185 C65.4480086,52.2419954 65.1464569,52.1631646 64.7491293,52.1631646 C64.4532672,52.1631646 64.1991293,52.1922569 63.9876638,52.25138 C63.7771466,52.3095646 63.5988707,52.4062262 63.4537845,52.5394877 C63.3086983,52.6736877 63.187319,52.8482415 63.0934397,53.0640877 C62.9967155,53.2799338 62.9151638,53.5473954 62.8497328,53.8664723 M64.95775,50.4598569 C65.5380948,50.4598569 66.0368879,50.5049031 66.4569741,50.5968723 C66.8761121,50.6879031 67.2193879,50.8324262 67.4905948,51.0276262 C67.7608534,51.2237646 67.9609397,51.4780877 68.0880086,51.7915338 C68.2179224,52.10498 68.2824052,52.4794262 68.2824052,52.9167492 C68.2824052,53.0218569 68.2814569,53.1194569 68.2776638,53.2104877 C68.274819,53.3024569 68.268181,53.3953646 68.2615431,53.4901492 C68.2549052,53.5849338 68.2435259,53.6862877 68.2283534,53.7932723 C68.2103362,53.9011954 68.1932672,54.0231954 68.1733534,54.1602108 C68.0870603,54.6566569 67.9846466,55.0827185 67.8661121,55.4383954 C67.7475776,55.7940723 67.6024914,56.09438 67.4308534,56.3393185 C67.2592155,56.5842569 67.058181,56.7794569 66.82775,56.9267954 C66.597319,57.0731954 66.3318017,57.1876877 66.03025,57.2693338 C65.7315431,57.35098 65.3949052,57.4054108 65.0212845,57.4307492 C64.6495603,57.4570262 64.232319,57.4701646 63.7705086,57.4701646 C63.1901638,57.4701646 62.6904224,57.42418 62.273181,57.3331492 C61.8530948,57.2421185 61.5060259,57.0975954 61.2319741,56.9014569 C60.9588707,56.7062569 60.7587845,56.4538108 60.6288707,56.14318 C60.5008534,55.8334877 60.437319,55.45998 60.437319,55.0217185 C60.437319,54.8199492 60.4449052,54.6275646 60.4610259,54.4445646 C60.4771466,54.2615646 60.5084397,54.0363338 60.5549052,53.7688723 C60.6336121,53.2733646 60.7350776,52.8473031 60.8555086,52.4916262 C60.9787845,52.1350108 61.1257672,51.8356415 61.2974052,51.5907031 C61.4690431,51.3457646 61.6691293,51.1496262 61.9014569,51.0032262 C62.1309397,50.8558877 62.3964569,50.7413954 62.6961121,50.6597492 C62.9967155,50.5790415 63.3333534,50.5246108 63.7060259,50.4992723 C64.0786983,50.4729954 64.4959397,50.4598569 64.95775,50.4598569" id="Fill-30" fill="#FEFEFE"></path>
            <path d="M74.2382414,55.6879323 C74.6327241,55.6879323 74.9513448,55.5969015 75.1931552,55.4139015 C75.433069,55.2309015 75.5999655,54.9174554 75.6919483,54.4745015 L76.5444483,50.5376554 L78.7785862,50.5376554 L77.8881552,54.6499938 C77.7629828,55.2374708 77.5951379,55.7160862 77.3836724,56.0839631 C77.1731552,56.4537169 76.9095345,56.7408862 76.5975517,56.9464092 C76.2846207,57.1519323 75.9166897,57.2908246 75.4937586,57.3621477 C75.0717759,57.4334708 74.5900517,57.4700708 74.0495345,57.4700708 C73.5753966,57.4700708 73.1467759,57.42784 72.7636724,57.34244 C72.3815172,57.2579785 72.0534138,57.1284708 71.7850517,56.9557938 C71.5128966,56.7831169 71.3061724,56.5644554 71.1610862,56.2998092 C71.016,56.0361015 70.9429828,55.7207785 70.9429828,55.3557169 C70.9429828,55.24404 70.9515172,55.1201631 70.9676379,54.9831477 C70.9847069,54.8461323 71.0027241,54.7353938 71.0216897,54.6499938 L71.913069,50.5376554 L74.1481552,50.5376554 L73.2985,54.4745015 C73.2842759,54.5523938 73.2728966,54.6274708 73.2634138,54.6987938 C73.253931,54.7710554 73.2491897,54.8395631 73.2491897,54.9052554 C73.2491897,55.1924246 73.3326379,55.3941938 73.5004828,55.5115015 C73.6683276,55.6297477 73.9148793,55.6879323 74.2382414,55.6879323" id="Fill-32" fill="#FEFEFE"></path>
            <path d="M81.7281983,51.6147277 C81.8002672,51.2684354 81.9500948,51.0028508 82.177681,50.8170354 C82.4052672,50.63122 82.6935431,50.5383123 83.0434569,50.5383123 L86.7521638,50.5383123 C87.0698362,50.5383123 87.3381983,50.5777277 87.5581983,50.65562 C87.7800948,50.7335123 87.9602672,50.8461277 88.0987155,50.9934662 C88.2371638,51.1398662 88.3405259,51.3162969 88.4050086,51.52182 C88.4704397,51.7282815 88.5045776,51.9572662 88.5045776,52.2125277 C88.5045776,52.3429738 88.4998362,52.4799892 88.4903534,52.6235738 C88.4789741,52.7671585 88.4581121,52.9135585 88.4249224,53.0637123 C88.3803534,53.3124046 88.3187155,53.5667277 88.2466466,53.82762 C88.1755259,54.0885123 88.0664741,54.3306354 87.9204397,54.5521123 C87.7753534,54.7745277 87.5800086,54.9556508 87.3315603,55.0954815 C87.0850086,55.2362508 86.7644914,55.3066354 86.3671638,55.3066354 L86.1699224,55.3066354 L86.1585431,55.3451123 L87.5942328,57.3918969 L85.1012155,57.3918969 L83.9538017,55.6097585 C83.8542328,55.4530354 83.779319,55.3300969 83.7309569,55.24282 C83.6825948,55.1546046 83.6560431,55.0326046 83.6560431,54.8758815 C83.6560431,54.8430354 83.6579397,54.8101892 83.6607845,54.7773431 C83.6645776,54.7444969 83.669319,54.7125892 83.6778534,54.6797431 L83.7063017,54.5324046 C83.7707845,54.2386662 83.9092328,54.0368969 84.1178534,53.92522 C84.3245776,53.8144815 84.576819,53.7591123 84.8736293,53.7591123 L85.2102672,53.7591123 C85.505181,53.7591123 85.7232845,53.7037431 85.862681,53.5930046 C86.0020776,53.4822662 86.1025948,53.2795585 86.1699224,52.98582 C86.1955259,52.8816508 86.2088017,52.7765431 86.2088017,52.6723738 C86.2088017,52.5025123 86.1556983,52.3889585 86.0504397,52.3298354 C85.9442328,52.2707123 85.7735431,52.24162 85.5364741,52.24162 L84.2591466,52.24162 C83.9699224,52.24162 83.7954397,52.3852046 83.7356983,52.6723738 L82.71725,57.3918969 L80.4802672,57.3918969 L81.7281983,51.6147277 Z" id="Fill-34" fill="#FEFEFE"></path>
            <path d="M102.790259,56.2460354 C102.776983,56.3107892 102.748534,56.4112046 102.704914,56.5444662 C102.662241,56.6786662 102.583534,56.8138046 102.468793,56.95082 C102.353103,57.0878354 102.19,57.2088969 101.979483,57.3130662 C101.768017,57.4181738 101.484483,57.4697892 101.127931,57.4697892 C100.996121,57.4697892 100.865259,57.46322 100.737241,57.4500815 C100.607328,57.4369431 100.484052,57.4078508 100.365517,57.3618662 C100.246983,57.31682 100.136983,57.2492508 100.035517,57.1619738 C99.9321552,57.07282 99.842069,56.95082 99.7633621,56.7940969 L98.0109483,53.2983277 C97.9976724,53.26642 97.9787069,53.2307585 97.9512069,53.1913431 C97.9256034,53.1519277 97.8952586,53.1331585 97.8639655,53.1331585 C97.8487931,53.1331585 97.8222414,53.1406662 97.7786207,53.15662 C97.7359483,53.1735123 97.7056034,53.2307585 97.6837931,53.3283585 L96.8047414,57.3918969 L94.9840517,57.3918969 L96.2111207,51.6738508 C96.2566379,51.4514354 96.3353448,51.2618662 96.4491379,51.1051431 C96.5610345,50.94842 96.6918966,50.8236046 96.8436207,50.72882 C96.9962931,50.6340354 97.1660345,50.5655277 97.3537931,50.5232969 C97.5425,50.4801277 97.7340517,50.4594815 97.9322414,50.4594815 C98.0251724,50.4594815 98.130431,50.4641738 98.2489655,50.4744969 C98.3675,50.4838815 98.4888793,50.5101585 98.6159483,50.5523892 C98.7401724,50.5955585 98.8587069,50.6584354 98.9715517,50.7438354 C99.0834483,50.8282969 99.1782759,50.9456046 99.2588793,51.0957585 L101.018879,54.62062 C101.037845,54.6534662 101.060603,54.6891277 101.082414,54.7285431 C101.107069,54.7679585 101.137414,54.7867277 101.177241,54.7867277 C101.229397,54.7867277 101.265431,54.7679585 101.281552,54.7285431 C101.297672,54.6891277 101.309052,54.6534662 101.316638,54.62062 L102.196638,50.5373738 L104.017328,50.5373738 L102.790259,56.2460354 Z" id="Fill-36" fill="#FEFEFE"></path>
            <path d="M109.209612,54.4150031 L110.626336,54.4150031 L110.358922,52.6826031 C110.350388,52.6563262 110.342802,52.6253569 110.333319,52.5896954 C110.323836,52.5540338 110.312457,52.5352646 110.297284,52.5352646 C110.285905,52.5352646 110.265991,52.5521569 110.238491,52.5840646 C110.213836,52.6169108 110.193922,52.6497569 110.179698,52.6826031 L109.209612,54.4150031 Z M108.804698,51.2918031 C108.897629,51.1482185 108.991509,51.0224646 109.086336,50.91548 C109.18306,50.8075569 109.294957,50.72028 109.422974,50.6555262 C109.55194,50.5898338 109.70556,50.5410338 109.888578,50.5081877 C110.06875,50.47628 110.295388,50.4593877 110.565647,50.4593877 C110.75056,50.4593877 110.92694,50.4659569 111.094784,50.4790954 C111.262629,50.4922338 111.411509,50.5260185 111.539526,50.5823262 C111.66944,50.6376954 111.77944,50.72028 111.873319,50.8319569 C111.963405,50.9426954 112.031681,51.0956646 112.069612,51.2918031 L113.325129,57.3918031 L111.109009,57.3918031 L110.84444,55.9812954 L108.389353,55.9812954 L107.549181,57.3918031 L105.044784,57.3918031 L108.804698,51.2918031 Z" id="Fill-38" fill="#FEFEFE"></path>
            <path d="M119.134172,55.1884831 C119.14081,55.2860831 119.171155,55.3358215 119.22331,55.3358215 C119.282103,55.3358215 119.339,55.2860831 119.391155,55.1884831 L122.01219,50.5374677 L124.505207,50.5374677 L120.846759,56.3634369 C120.752879,56.5145292 120.649517,56.6552985 120.534776,56.7894985 C120.418138,56.9236985 120.281586,57.0410062 120.123224,57.14236 C119.963914,57.2427754 119.783741,57.3234831 119.578914,57.3816677 C119.374086,57.4407908 119.137017,57.4698831 118.866759,57.4698831 C118.5965,57.4698831 118.37081,57.4407908 118.18969,57.3816677 C118.007621,57.3234831 117.85969,57.2427754 117.747793,57.14236 C117.635897,57.0410062 117.5515,56.9236985 117.492707,56.7894985 C117.432966,56.6552985 117.389345,56.5145292 117.362793,56.3634369 L116.215379,50.5374677 L118.512103,50.5374677 L119.134172,55.1884831 Z" id="Fill-40" fill="#FEFEFE"></path>
            <polygon id="Fill-42" fill="#FEFEFE" points="125.515595 57.3916154 126.989216 50.5380308 129.226198 50.5380308 127.749733 57.3916154"></polygon>
            <path d="M135.626207,52.2415262 C135.355948,52.2415262 135.118879,52.2631108 134.918793,52.3053415 C134.717759,52.3475723 134.544224,52.4273415 134.399138,52.5455877 C134.254052,52.6619569 134.131724,52.8280646 134.032155,53.0401569 C133.933534,53.2522492 133.84819,53.5272185 133.775172,53.8660031 C133.742931,54.0302338 133.715431,54.1935262 133.696466,54.35588 C133.6775,54.5191723 133.666121,54.6571262 133.666121,54.7678646 C133.666121,55.1263569 133.76569,55.3694185 133.963879,55.4970492 C134.162069,55.6237415 134.467414,55.6875569 134.883707,55.6875569 L135.359741,55.6875569 C135.648017,55.6875569 135.826293,55.5449108 135.893621,55.2568031 L136.208448,53.7684031 L138.446379,53.7684031 L137.901121,56.3144492 C137.828103,56.6607415 137.677328,56.9263262 137.445948,57.1121415 C137.215517,57.2988954 136.925345,57.3918031 136.575431,57.3918031 L133.963879,57.3918031 C133.053534,57.3918031 132.39069,57.1834646 131.974397,56.7649108 C131.559052,56.3472954 131.352328,55.7504338 131.352328,54.9733877 C131.352328,54.7772492 131.36181,54.5698492 131.380776,54.3521262 C131.401638,54.1325262 131.433879,53.9054185 131.480345,53.6708031 C131.592241,53.0833262 131.736379,52.5896954 131.910862,52.1870954 C132.085345,51.7863723 132.315776,51.4626031 132.603103,51.2186031 C132.889483,50.9736646 133.246983,50.7991108 133.67181,50.6949415 C134.096638,50.5898338 134.619138,50.5382185 135.241207,50.5382185 L138.980259,50.5382185 L138.613276,52.2415262 L135.626207,52.2415262 Z" id="Fill-44" fill="#FEFEFE"></path>
            <path d="M144.460724,55.6879323 C144.857103,55.6879323 145.175724,55.5969015 145.415638,55.4139015 C145.655552,55.2309015 145.823397,54.9174554 145.914431,54.4745015 L146.766931,50.5376554 L149.002017,50.5376554 L148.112534,54.6499938 C147.987362,55.2374708 147.817621,55.7160862 147.607103,56.0839631 C147.396586,56.4537169 147.133914,56.7408862 146.820034,56.9464092 C146.507103,57.1519323 146.139172,57.2908246 145.718138,57.3621477 C145.296155,57.4334708 144.814431,57.4700708 144.273914,57.4700708 C143.797879,57.4700708 143.369259,57.42784 142.986155,57.34244 C142.604,57.2579785 142.277793,57.1284708 142.007534,56.9557938 C141.737276,56.7831169 141.528655,56.5644554 141.383569,56.2998092 C141.240379,56.0361015 141.165466,55.7207785 141.165466,55.3557169 C141.165466,55.24404 141.174948,55.1201631 141.192017,54.9831477 C141.20719,54.8461323 141.227103,54.7353938 141.245121,54.6499938 L142.135552,50.5376554 L144.372534,50.5376554 L143.520983,54.4745015 C143.508655,54.5523938 143.497276,54.6274708 143.485897,54.6987938 C143.476414,54.7710554 143.471672,54.8395631 143.471672,54.9052554 C143.471672,55.1924246 143.556069,55.3941938 143.724862,55.5115015 C143.891759,55.6297477 144.137362,55.6879323 144.460724,55.6879323" id="Fill-46" fill="#FEFEFE"></path>
            <path d="M157.91619,52.2021108 L154.493862,52.2021108 C154.20369,52.2021108 154.02731,52.3456954 153.968517,52.6328646 L153.859466,53.1415108 L157.639293,53.1415108 L157.312138,54.6496185 L153.533259,54.6496185 L153.39481,55.2962185 C153.389121,55.3290646 153.383431,55.35628 153.379638,55.3797415 C153.376793,55.4032031 153.374897,55.4266646 153.374897,55.4529415 C153.374897,55.6359415 153.494379,55.7269723 153.731448,55.7269723 L157.193603,55.7269723 L156.837052,57.3918031 L151.792224,57.3918031 C151.495414,57.3918031 151.273517,57.3129723 151.130328,57.1562492 C150.983345,57.0004646 150.912224,56.80808 150.912224,56.5790954 C150.912224,56.4946338 150.921707,56.4064185 150.941621,56.3144492 L151.950586,51.6146338 C152.022655,51.2683415 152.162052,51.0027569 152.365931,50.8169415 C152.56981,50.6311262 152.871362,50.5382185 153.265845,50.5382185 L158.272741,50.5382185 L157.91619,52.2021108 Z" id="Fill-48" fill="#FEFEFE"></path>
            <path d="M161.073095,51.6147277 C161.144216,51.2684354 161.294991,51.0028508 161.522578,50.8170354 C161.750164,50.63122 162.03844,50.5383123 162.388353,50.5383123 L166.09706,50.5383123 C166.413784,50.5383123 166.683095,50.5777277 166.903095,50.65562 C167.124991,50.7335123 167.305164,50.8461277 167.442664,50.9934662 C167.58206,51.1398662 167.684474,51.3162969 167.749905,51.52182 C167.815336,51.7282815 167.849474,51.9572662 167.849474,52.2125277 C167.849474,52.3429738 167.844733,52.4799892 167.83525,52.6235738 C167.823871,52.7671585 167.803009,52.9135585 167.769819,53.0637123 C167.72525,53.3124046 167.663612,53.5667277 167.591543,53.82762 C167.519474,54.0885123 167.411371,54.3306354 167.265336,54.5521123 C167.119302,54.7745277 166.924905,54.9556508 166.676457,55.0954815 C166.429905,55.2362508 166.10844,55.3066354 165.71206,55.3066354 L165.514819,55.3066354 L165.50344,55.3451123 L166.939129,57.3918969 L164.446112,57.3918969 L163.298698,55.6097585 C163.199129,55.4530354 163.124216,55.3300969 163.075853,55.24282 C163.026543,55.1546046 163.00094,55.0326046 163.00094,54.8758815 C163.00094,54.8430354 163.001888,54.8101892 163.005681,54.7773431 C163.008526,54.7444969 163.014216,54.7125892 163.021802,54.6797431 L163.05025,54.5324046 C163.115681,54.2386662 163.254129,54.0368969 163.461802,53.92522 C163.669474,53.8144815 163.920767,53.7591123 164.218526,53.7591123 L164.555164,53.7591123 C164.850078,53.7591123 165.068181,53.7037431 165.207578,53.5930046 C165.346974,53.4822662 165.447491,53.2795585 165.514819,52.98582 C165.540422,52.8816508 165.553698,52.7765431 165.553698,52.6723738 C165.553698,52.5025123 165.500595,52.3889585 165.395336,52.3298354 C165.289129,52.2707123 165.11844,52.24162 164.881371,52.24162 L163.604043,52.24162 C163.313871,52.24162 163.140336,52.3852046 163.080595,52.6723738 L162.062147,57.3918969 L159.825164,57.3918969 L161.073095,51.6147277 Z" id="Fill-50" fill="#FEFEFE"></path>
        </g>
    </g>
</svg>