<?xml version="1.0" encoding="utf-8"?>
<!-- Generator: Adobe Illustrator 21.1.0, SVG Export Plug-In . SVG Version: 6.00 Build 0)  -->
<svg version="1.1" xmlns="http://www.w3.org/2000/svg" xmlns:xlink="http://www.w3.org/1999/xlink" x="0px" y="0px"
	 viewBox="0 0 481.9 270.5" style="enable-background:new 0 0 481.9 270.5;" xml:space="preserve">
<style type="text/css">
	.st0{fill:#FFFFFF;}
	.st1{fill:#001F5B;}
	.st2{fill:#63D0DF;stroke:#FFFFFF;stroke-width:0.5;stroke-miterlimit:10;}
	.st3{fill:#63D0DF;}
	.st4{fill:#002F87;}
</style>
<g id="Calque_1">
	<path class="st0" d="M57.2,259.5c-0.1-1.2-0.1-2.7-0.2-4.5c-0.7-15.8-2.4-52.7-9.6-97.8C38.4,101.1,24,52.8,4.7,13.5L0,3.8L10.7,3
		c0.4,0,40-3,88.3-3c32,0,60.6,1.3,85.2,3.8c31.5,3.2,56.4,8.6,73.7,15.9l4.3,1.8l0.2,4.6c0.1,1.4,0.5,5.1,3,13.7l0,0.2l0,0.2
		c1.5,6.3,3.3,12.8,5.3,19.3l0.5,1.7l1.7,0.6c37,13.8,80.2,20.7,128.4,20.7c20.7,0,42.5-1.3,64.8-3.9l15.7-1.8l-8.8,13.1
		c-14.4,21.4-34.7,42-60.1,61.2c-20.2,15.2-43.7,29.6-70,42.8c-44.6,22.4-81,33.3-82.6,33.8l-7.7,2.3l-8-41.2l-3.9,1.2
		c-39.1,12.3-91.3,35.1-164.3,71.6l-10,5l0-0.3l-8.7,4.3L57.2,259.5z"/>
	<path class="st1" d="M265.4,66.6c15.8,48.8,40.3,88.1,48.7,100.9c0.9,1.3,1.7,2.6,2.6,3.8c0.3,0.4,0.4,0.6,0.4,0.6
		c-17.6-2.2-38.5-0.3-66.8,7.6l8,41.1c0,0,147.4-43.9,208.7-134.9C367.5,97.3,302.7,81.4,265.4,66.6z"/>
	<path class="st2" d="M287.7,91.6c-4.5-1.5-11.3-3.9-15.4-5.4c14.1,38.6,34.3,69.7,41.2,80.6c0.8,1.3,1.7,2.6,2.5,3.9
		c0.3,0.4,0.4,0.6,0.4,0.6c-0.1,0-0.2,0-0.3,0c0.3,0.3,0.7,0.5,1,0.8l-12.1,10c7.5-3.2,15.6-6.7,23.9-10.7
		c24.8-11.8,47.3-24.8,66.6-38.6c10.3-7.4,19.7-14.9,28.1-22.7C372.5,110.5,326.9,104.2,287.7,91.6z"/>
	<path class="st0" d="M300.1,144.6c-22.4,2.7-43,6.3-61.9,10.5l-46.7-117c18.5,2.2,59.4,10.8,69.3,13.4c-0.5-1.7-0.9-3.4-1.4-5.1
		c-13.9-3.4-51.4-11.1-68.1-13c-20.8-2.3-47.1-3.7-82.8-4.2c-16.4-0.2-31.4,0-44.7,0.7c-4,0.2-7.8,0.5-11.4,0.8L49.4,31l1.1,2.9
		c0.1,0.3,11.9,30.5,24.2,87.3c12.3,56.8,14.7,89.2,14.7,89.5l0.2,3.3l3-1.4c3-1.4,6.3-2.9,9.7-4.5c38.1-17.8,101.7-47.7,200.2-59.2
		C301.8,147.6,301,146.1,300.1,144.6z M100.5,204c-2.3,1.1-4.6,2.1-6.7,3.1c-0.9-9.7-4.3-40-14.5-86.8C69,73.1,59.1,44,55.9,35.2
		c2.7-0.2,5.4-0.4,8.3-0.5c13.2-0.7,28.1-1,44.4-0.7c17.9,0.3,33.4,0.7,47.1,1.4c7.6,17.2,38.8,89.2,45.4,129.4
		C156.6,177.7,123.8,193.1,100.5,204z"/>
	<g>
		<path class="st3" d="M55.9,35.2C59.1,44,69,73.1,79.3,120.3c10.2,46.8,13.6,77.2,14.5,86.8c2.1-1,4.4-2,6.7-3.1
			c23.3-10.9,56.1-26.3,100.5-39.3c-6.6-40.1-37.8-112.2-45.4-129.4c-13.6-0.7-29.2-1.2-47.1-1.4c-16.3-0.2-31.2,0-44.4,0.7
			C61.3,34.8,58.6,35,55.9,35.2z"/>
		<path class="st3" d="M260.9,51.6c-9.9-2.6-50.7-11.2-69.3-13.4l46.7,117c18.9-4.2,39.5-7.8,61.9-10.5c-12.5-22-29-55.5-39.3-93.3
			C260.8,51.4,260.9,51.5,260.9,51.6z"/>
	</g>
	<path class="st4" d="M281.2,107.3c-0.2-0.6-0.5-1.1-0.7-1.7c0.1,0.3,0.2,0.5,0.4,0.8C280.9,106.7,281,107,281.2,107.3z"/>
	<path class="st4" d="M285.5,116.5c-0.3-0.6-0.6-1.2-0.9-1.8c0.2,0.3,0.3,0.7,0.5,1C285.2,116,285.3,116.2,285.5,116.5z"/>
	<path class="st1" d="M316.7,171.4c-0.9-1.2-1.7-2.5-2.6-3.8c-2.7-4.1-7-10.9-12.2-19.8c0.2,0.4,0.5,0.8,0.7,1.2
		c-98.5,11.5-162.1,41.3-200.2,59.2c-3.4,1.6-6.7,3.1-9.7,4.5l-3,1.4l-0.2-3.3c0-0.3-1.6-22.2-9-61.6
		c102.7-41.6,186.3-31.8,207.1-28.4c-0.1-0.3-0.3-0.5-0.4-0.8c0.1,0.1,0.1,0.2,0.2,0.4c-0.2-0.4-0.4-0.8-0.6-1.3
		c-1-2.1-2.1-4.3-3.1-6.5c-0.4-0.8-0.7-1.5-1.1-2.3c-1.3-2.8-2.6-5.8-3.9-8.7c0.2,0.5,0.4,0.9,0.6,1.4c-0.3-0.7-0.6-1.3-0.9-2
		c-0.7-1.6-1.4-3.2-2-4.8c0,0.1,0.1,0.1,0.1,0.2c0-0.1-0.1-0.2-0.1-0.2c0,0,0,0,0,0c-0.6-1.4-1.2-2.8-1.8-4.3
		c0.2,0.4,0.3,0.9,0.5,1.3c-0.3-0.7-0.5-1.3-0.8-2c-0.3-0.8-0.6-1.6-1-2.4c-0.3-0.9-0.7-1.7-1-2.6c0,0,0,0,0,0
		c0.3,0.8,0.6,1.6,0.9,2.3c-0.8-2-1.6-4-2.3-6c-80-20.1-186.7,4.4-203.3,8.4c-9.4-37.1-17-56.6-17.1-56.8L49.4,31l3.1-0.3
		c3.6-0.3,7.5-0.6,11.4-0.8c13.3-0.7,28.3-1,44.7-0.7c35.7,0.5,62,1.9,82.8,4.2c16.7,1.9,54.2,9.5,68.1,13c0,0.1,0.1,0.2,0.1,0.3
		c-0.4-1.7-0.8-3.3-1.2-5c-2-6.9-3.1-12.2-3.3-15.4C185-3,11.3,10.3,11.3,10.3C60.1,109.7,63.4,237,64.5,259.1l8.7-4.3
		c0,0.1,0,0.2,0,0.2C212,185.7,274.5,166.5,317.1,172C317.1,172,317,171.8,316.7,171.4z M283.6,112.4
		C283.6,112.5,283.6,112.5,283.6,112.4c-0.2-0.5-0.5-1.1-0.8-1.7C283,111.3,283.3,111.9,283.6,112.4z M65.5,91.3
		C65.4,91.3,65.4,91.3,65.5,91.3C65.4,91.3,65.4,91.3,65.5,91.3z M67.2,90.9c-0.1,0-0.2,0-0.2,0.1C67.1,90.9,67.1,90.9,67.2,90.9z
		 M65.6,91.3c0,0-0.1,0-0.1,0C65.5,91.3,65.6,91.3,65.6,91.3z"/>
	<path class="st4" d="M300.1,144.6c0.4,0.8,0.9,1.5,1.3,2.2c-0.5-0.9-1-1.7-1.5-2.6C300,144.4,300.1,144.5,300.1,144.6
		C300.1,144.6,300.1,144.6,300.1,144.6z"/>
	<g>
		<path class="st0" d="M149.5,86.1c2.7-0.5,4.7-0.6,6.9-0.4c0,1.7,0,3.4,0,5.1c-0.9,0-1.5,0-2.1,0.1c-5.3,1-7.6,4.8-6.7,12.5
			c0.7,5.8,3.4,10.8,7.4,10.2c2.2-0.3,3.3-1,5-2c0.4,1.5,0.8,3,1.1,4.6c-1.3,1-3.3,2.2-7.6,3.4c-8.4,2.5-16.1-2.4-17.2-12.2
			C135.3,97.7,140.8,87.8,149.5,86.1z"/>
		<path class="st0" d="M198.1,109.9c-7.3-5.3-14.3-10.8-21-16.4c1,6.4,2,12.7,3.1,19c-1.5,0.3-3,0.5-4.5,0.8c-1.3-8-2.6-16-3.8-24.2
			c-1.9-1.6-3.7-3.2-5.6-4.9c4.7-0.6,9.5-1.1,14.2-1.5c5,4.5,10.2,8.9,15.6,13.2c-0.9-4.6-1.8-9.3-2.7-14c1.5-0.1,2.9-0.1,4.3-0.1
			c1.8,9.3,3.7,18.5,5.7,27.5C201.8,109.5,200,109.7,198.1,109.9z"/>
		<path class="st0" d="M231.4,83.1c0.4,1.3,0.8,2.6,1.2,3.9c-1.6-0.1-3.3-0.3-4.9-0.4c2,7.2,4,14.4,6.2,21.4c-3.8,0-7.6,0-11.4,0.1
			c-1.9-7.3-3.8-14.6-5.6-22.1c-1.7,0-3.3-0.1-5-0.1c-0.3-1.4-0.6-2.8-1-4.1C217.8,82,224.7,82.5,231.4,83.1z"/>
		<path class="st0" d="M254.1,86.2c2.5,6.6,5,13.2,7.6,19.6c2.6,0.3,5.1,0.7,7.7,1c0.5,1.3,1.1,2.6,1.6,3.8
			c-6.1-0.8-12.4-1.5-18.8-1.9c-2.9-8-5.7-16-8.4-24.2C247.2,85,250.7,85.6,254.1,86.2z"/>
		<g>
			<path class="st0" d="M107.9,112.9c1.3,0.1,2.5,0.2,3.7,0.3c1.6,0.1,3.2,0.2,4.8,0.3c1.6,0.1,3.2,0.2,4.8,0.3
				c1.3,0.1,2.5,0.2,3.8,0.3c0.2,0,0.4,0,0.5,0.1c0.3,0.1,0.3,0.4,0.1,0.6c-0.1,0.1-0.1,0.1-0.2,0.2c-2.2,1.9-4.5,3.8-6.7,5.8
				c-0.7,0.6-1.5,0.8-2.4,0.8c-1.9-0.1-3.8-0.3-5.7-0.4c-0.8-0.1-1.6-0.1-2.4-0.2c-0.4,0-0.6-0.2-0.7-0.5c-0.2-0.4-0.1-0.9-0.1-1.3
				c0.1-1.2,0.2-2.4,0.3-3.6C107.8,114.6,107.8,113.8,107.9,112.9z"/>
			<path class="st0" d="M108.1,110.6c0-0.5,0.1-1,0.1-1.4c0.1-1.6,0.2-3.2,0.3-4.8c0.1-1.8,0.3-3.7,0.4-5.5c0.1-1.6,0.2-3.1,0.3-4.7
				c0-0.2,0-0.5,0.1-0.7c0-0.2,0.1-0.4,0.3-0.5c0.2-0.1,0.3,0.1,0.5,0.2c1.5,1.7,2.9,3.4,4.4,5c0.5,0.6,1,1.2,1.6,1.8
				c0.4,0.5,0.6,1,0.6,1.6c0,0.5,0,1,0,1.6c-0.2,2.3-0.3,4.5-0.5,6.8c0,0,0,0.1,0,0.1c-0.1,0.8-0.2,0.9-1,1.1c-0.2,0-0.4,0-0.6,0
				c-2-0.1-4.1-0.3-6.1-0.5C108.3,110.7,108.2,110.7,108.1,110.6z"/>
			<path class="st0" d="M105.5,112.9c0,0.2,0,0.3,0,0.5c-0.1,1.5-0.2,3.1-0.3,4.6c-0.1,1.6-0.2,3.1-0.3,4.7
				c-0.1,1.9-0.3,3.7-0.4,5.6c0,0.4-0.1,0.8-0.1,1.3c0,0.2,0,0.3,0,0.5c0,0.2,0,0.5-0.3,0.6c-0.3,0.1-0.4-0.1-0.6-0.3
				c-1.7-1.9-3.3-3.8-5-5.7c-0.3-0.3-0.5-0.6-0.8-0.9c-0.7-0.7-0.9-1.6-0.8-2.5c0.1-1.9,0.3-3.8,0.4-5.7c0.1-0.8,0.1-1.5,0.2-2.3
				c0-0.4,0.2-0.6,0.6-0.7c0.4-0.1,0.9-0.1,1.3-0.1c1.5,0.1,3.1,0.2,4.6,0.3C104.5,112.8,105,112.8,105.5,112.9z"/>
			<path class="st0" d="M105.8,110.4c-0.8-0.1-1.6-0.1-2.4-0.2c-1.6-0.1-3.2-0.2-4.8-0.3c-1.6-0.1-3.1-0.2-4.7-0.3
				c-1.6-0.1-3.2-0.2-4.8-0.3c-0.2,0-0.5,0-0.7-0.1c-0.4-0.1-0.4-0.4-0.2-0.7c0.1-0.1,0.2-0.1,0.2-0.2c2.1-1.9,4.3-3.7,6.4-5.6
				c0.8-0.8,1.8-1,2.8-0.9c1.7,0.1,3.3,0.2,5,0.4c0.9,0.1,1.9,0.1,2.8,0.2c0.6,0,0.8,0.2,0.9,0.8c0.1,0.4,0.1,0.8,0,1.1
				c-0.1,1.9-0.3,3.7-0.4,5.6C105.8,110.1,105.8,110.2,105.8,110.4z"/>
		</g>
	</g>
	<path class="st0" d="M422.7,105.8c-6.6,0.2-13,0.3-19.4,0.3c-42.7,0-81.7-5.1-116.3-15.3c-5-1.5-9.9-3-14.7-4.7
		c0.7,1.9,1.5,3.7,2.2,5.5c3.7,1.2,7.4,2.4,11.2,3.5c38.6,11.4,82.7,16.5,131.2,15.3c-7,6.5-14.7,12.9-23,19.1
		c-18.8,14.2-40.8,27.6-65.2,40.1c-7.2,3.7-14.2,7-20.9,10l-12.7,10.5c10.6-4.5,22.8-10,35.7-16.5c24.7-12.5,46.9-26.2,65.9-40.5
		c10.2-7.7,19.5-15.6,27.7-23.6l4.2-4.1L422.7,105.8z"/>
	<path class="st1" d="M251.2,179.3l7.1,41.4l58.8-48.7C299.8,169.8,279,171.6,251.2,179.3z"/>
	<path class="st1" d="M300.1,144.6L300.1,144.6C300.5,145.2,300.5,145.2,300.1,144.6z"/>
	<path class="st1" d="M300.1,144.6c0,0,49.8-0.9,104.6-23.5c4.3-3.5,8.3-7,12.2-10.6c-5.5,0.1-11,0.2-16.4,0.2
		c-27.5,4.2-68.4,8.4-114.7,6.7c0.3,0.6,0.6,1.2,0.8,1.7c0.2,0.4,0.4,0.8,0.6,1.3c-0.1-0.1-0.1-0.2-0.2-0.4c0,0,0,0,0,0
		c4.4,9.1,8.8,17.3,12.8,24.3C300,144.4,300.1,144.5,300.1,144.6z"/>
</g>
<g id="decoupe">
</g>
</svg>
